# File created by Blade
# Date/Time:  Thu Sep 25 19:43:58 2014
# Frame Rate: 120.000 fps
#------------------------------------------------------
:FULLY-SPECIFIED
:DEGREES
1135
root -8.475341 27.694690 -6.765609 25.002642 10.984027 4.864361
Spine 7.627660 8.936068 -1.612710
Head -46.385374 -0.392857 -3.964812
LeftShoulder -8.942225 18.857284 10.232541
LeftArm 15.002093 16.125652 -74.083966
LeftForeArm 11.725090 -0.000000 27.463104
LeftHand -22.398062 0.000000 5.036135
LeftHandThumb1 -26.253704 0.000000 33.147579
RightShoulder -10.270098 18.067301 -22.540045
RightArm 1.394161 -22.131191 81.475471
RightForeArm -0.855996 0.000000 24.215712
RightHand -0.787756 -0.000000 5.194087
RightHandThumb1 -24.326973 -0.000000 -32.862282
LeftUpLeg -43.675051 24.582998 20.280348
LeftLeg 19.334887 -0.000000 -0.000000
LeftFoot 19.266673 20.162156 -20.145203
LeftToeBase 2.173973 -0.000000 -0.000000
RightUpLeg -50.556741 -16.751704 -12.325573
RightLeg 71.054708 -0.000000 -0.000000
RightFoot -32.968850 -12.275471 21.768369
RightToeBase -3.997937 -0.000000 0.000000
1136
root -8.522646 27.903872 -6.708284 24.989024 10.745437 5.163756
Spine 7.422354 8.864684 -1.587923
Head -46.130317 -0.295936 -4.082690
LeftShoulder -9.006136 18.922261 10.086316
LeftArm 14.502245 16.019392 -74.869734
LeftForeArm 11.642722 -0.000000 27.067642
LeftHand -22.192728 -0.000000 4.693849
LeftHandThumb1 -26.253704 0.000000 33.147579
RightShoulder -10.462741 17.792584 -22.450655
RightArm 0.982869 -22.556695 82.079652
RightForeArm -1.276812 -0.000000 24.411160
RightHand -0.860471 -0.000000 5.182034
RightHandThumb1 -24.326973 -0.000000 -32.862282
LeftUpLeg -43.546837 24.266910 19.641603
LeftLeg 19.888899 -0.000000 -0.000000
LeftFoot 18.259642 18.436095 -21.557807
LeftToeBase 1.097997 -0.000000 -0.000000
RightUpLeg -49.959246 -16.822905 -12.441209
RightLeg 69.844256 -0.000000 -0.000000
RightFoot -32.482659 -12.398510 21.461720
RightToeBase -3.985506 -0.000000 0.000000
1137
root -8.546724 28.115876 -6.663503 25.078495 10.689059 5.614250
Spine 7.144163 8.572633 -1.612135
Head -45.918455 -0.187025 -4.218492
LeftShoulder -9.051770 19.001376 9.934411
LeftArm 14.081997 16.010229 -75.609689
LeftForeArm 11.521613 -0.000000 26.621002
LeftHand -22.087568 -0.000000 4.567187
LeftHandThumb1 -26.253704 0.000000 33.147579
RightShoulder -10.595266 17.555905 -22.436853
RightArm 0.462484 -22.831328 82.702735
RightForeArm -1.589898 -0.000000 24.575111
RightHand -1.015386 0.000000 4.820150
RightHandThumb1 -24.326973 -0.000000 -32.862282
LeftUpLeg -43.591757 23.475909 18.948306
LeftLeg 20.561532 -0.000000 -0.000000
LeftFoot 16.986811 16.982838 -23.044701
LeftToeBase 0.902899 -0.000000 -0.000000
RightUpLeg -49.375904 -17.183531 -12.639497
RightLeg 68.599648 -0.000000 -0.000000
RightFoot -31.974763 -12.529972 21.138325
RightToeBase -3.937033 -0.000000 0.000000
1138
root -8.568917 28.328763 -6.621440 25.081435 10.559391 6.062694
Spine 7.024611 8.374923 -1.728690
Head -45.802153 -0.084745 -4.185768
LeftShoulder -9.086928 19.098132 9.840711
LeftArm 13.832369 15.921980 -76.311108
LeftForeArm 11.598703 0.000000 26.145788
LeftHand -21.866400 -0.000000 4.436243
LeftHandThumb1 -26.253704 0.000000 33.147579
RightShoulder -10.695850 17.350168 -22.397451
RightArm -0.034019 -23.036024 83.290912
RightForeArm -1.610077 -0.000000 24.732119
RightHand -1.018341 -0.000000 4.495551
RightHandThumb1 -24.326973 -0.000000 -32.862282
LeftUpLeg -43.555337 22.706728 18.221683
LeftLeg 21.349470 -0.000000 -0.000000
LeftFoot 15.616723 15.397866 -24.470029
LeftToeBase 0.781611 -0.000000 -0.000000
RightUpLeg -48.697104 -17.333733 -12.931472
RightLeg 67.307120 -0.000000 -0.000000
RightFoot -31.471685 -12.748100 20.918085
RightToeBase -4.003078 -0.000000 0.000000
1139
root -8.584129 28.540644 -6.576032 25.081048 10.487262 6.541914
Spine 6.908737 8.198008 -1.883979
Head -45.652900 -0.047828 -4.120652
LeftShoulder -9.049122 19.131018 9.785479
LeftArm 13.590721 15.944442 -76.909304
LeftForeArm 11.484643 0.000000 25.711328
LeftHand -21.721037 -0.000000 4.168480
LeftHandThumb1 -26.253704 0.000000 33.147579
RightShoulder -10.848893 17.119782 -22.328110
RightArm -0.531825 -23.157728 83.797408
RightForeArm -1.693047 -0.000000 24.897772
RightHand -1.081557 -0.000000 4.322709
RightHandThumb1 -24.326973 -0.000000 -32.862282
LeftUpLeg -43.573805 21.888445 17.400399
LeftLeg 22.261803 -0.000000 -0.000000
LeftFoot 14.227683 13.698295 -25.602326
LeftToeBase 0.511159 -0.000000 -0.000000
RightUpLeg -47.968651 -17.545017 -13.242671
RightLeg 65.985735 -0.000000 -0.000000
RightFoot -30.984977 -13.072557 20.612309
RightToeBase -3.989905 -0.000000 0.000000
1140
root -8.586835 28.753353 -6.535068 25.094312 10.422216 7.075070
Spine 6.791348 7.990926 -2.100017
Head -45.467741 -0.018876 -4.079413
LeftShoulder -9.058401 19.136726 9.704379
LeftArm 13.468210 16.101067 -77.403086
LeftForeArm 11.370639 0.000000 25.191257
LeftHand -21.734468 0.000000 4.142339
LeftHandThumb1 -26.253704 0.000000 33.147579
RightShoulder -10.924532 16.955819 -22.270805
RightArm -1.124778 -23.297337 84.324775
RightForeArm -1.374835 -0.000000 25.101619
RightHand -1.376705 -0.000000 3.726052
RightHandThumb1 -24.326973 -0.000000 -32.862282
LeftUpLeg -43.616641 20.986483 16.484982
LeftLeg 23.221885 -0.000000 -0.000000
LeftFoot 12.625615 12.004943 -26.926991
LeftToeBase 1.003871 -0.000000 -0.000000
RightUpLeg -47.211839 -17.747759 -13.641686
RightLeg 64.623549 -0.000000 -0.000000
RightFoot -30.501695 -13.388029 20.402541
RightToeBase -3.997159 -0.000000 0.000000
1141
root -8.581568 28.965283 -6.491888 25.073560 10.373939 7.623297
Spine 6.723059 7.859974 -2.341452
Head -45.288667 -0.096002 -3.979309
LeftShoulder -9.018915 19.186556 9.637860
LeftArm 13.532556 16.374718 -77.756542
LeftForeArm 11.252197 -0.000000 24.639230
LeftHand -21.674267 0.000000 4.077686
LeftHandThumb1 -26.253704 0.000000 33.147579
RightShoulder -11.048367 16.680046 -22.207278
RightArm -1.608648 -23.391014 84.732894
RightForeArm -1.318686 -0.000000 25.285543
RightHand -1.293204 -0.000000 3.908126
RightHandThumb1 -24.326973 -0.000000 -32.862282
LeftUpLeg -43.620263 20.042681 15.507061
LeftLeg 24.182917 -0.000000 -0.000000
LeftFoot 11.095818 10.288573 -27.667080
LeftToeBase 0.998895 -0.000000 -0.000000
RightUpLeg -46.370712 -17.876418 -14.110280
RightLeg 63.225293 -0.000000 -0.000000
RightFoot -30.022881 -13.738180 20.229071
RightToeBase -3.944976 -0.000000 0.000000
1142
root -8.570176 29.176448 -6.450580 25.088448 10.384396 8.145675
Spine 6.595362 7.672741 -2.539936
Head -45.080052 -0.095571 -3.912140
LeftShoulder -9.037223 19.133444 9.558836
LeftArm 13.526898 16.765883 -78.054025
LeftForeArm 11.014501 -0.000000 24.140119
LeftHand -21.649768 0.000000 3.749451
LeftHandThumb1 -26.253704 0.000000 33.147579
RightShoulder -11.147252 16.402163 -22.163469
RightArm -2.059939 -23.579858 85.076188
RightForeArm -1.333129 0.000000 25.426698
RightHand -1.304120 -0.000000 4.012984
RightHandThumb1 -24.326973 -0.000000 -32.862282
LeftUpLeg -43.694922 19.092404 14.485841
LeftLeg 25.177061 -0.000000 -0.000000
LeftFoot 9.506284 8.606284 -28.513650
LeftToeBase 0.906030 -0.000000 -0.000000
RightUpLeg -45.535072 -18.000385 -14.555196
RightLeg 61.804913 -0.000000 -0.000000
RightFoot -29.498361 -14.167968 19.994802
RightToeBase -3.900969 -0.000000 0.000000
1143
root -8.553861 29.385063 -6.410526 25.106880 10.416824 8.604215
Spine 6.433180 7.542460 -2.647322
Head -44.813156 -0.223910 -3.877066
LeftShoulder -8.980892 19.091164 9.483599
LeftArm 13.561523 17.236248 -78.304817
LeftForeArm 10.885772 -0.000000 23.679115
LeftHand -21.608601 -0.000000 3.616176
LeftHandThumb1 -26.253704 0.000000 33.147579
RightShoulder -11.239690 16.138601 -22.180581
RightArm -2.558451 -23.826223 85.402403
RightForeArm -1.358664 -0.000000 25.586211
RightHand -1.362124 -0.000000 4.156461
RightHandThumb1 -24.326973 -0.000000 -32.862282
LeftUpLeg -43.801711 18.219388 13.428667
LeftLeg 26.171003 -0.000000 -0.000000
LeftFoot 7.996714 6.950233 -29.521432
LeftToeBase 0.764545 -0.000000 -0.000000
RightUpLeg -44.689401 -18.055616 -14.964117
RightLeg 60.356467 -0.000000 -0.000000
RightFoot -28.983942 -14.642388 19.873242
RightToeBase -3.762689 -0.000000 0.000000
1144
root -8.532785 29.593414 -6.367973 25.067852 10.357994 9.028997
Spine 6.337794 7.542132 -2.806120
Head -44.528456 -0.356439 -3.799307
LeftShoulder -8.953265 19.023927 9.441839
LeftArm 13.684268 17.736119 -78.486688
LeftForeArm 10.658913 -0.000000 23.222439
LeftHand -21.532974 0.000000 3.344390
LeftHandThumb1 -26.253704 0.000000 33.147579
RightShoulder -11.332198 15.918935 -22.153939
RightArm -3.057475 -24.139228 85.678470
RightForeArm -1.608592 -0.000000 25.740181
RightHand -1.479054 -0.000000 4.021680
RightHandThumb1 -24.326973 -0.000000 -32.862282
LeftUpLeg -43.795991 17.461592 12.341832
LeftLeg 27.131603 -0.000000 -0.000000
LeftFoot 6.657610 5.542649 -31.242726
LeftToeBase 0.250129 -0.000000 -0.000000
RightUpLeg -43.807160 -17.972639 -15.406717
RightLeg 58.887269 -0.000000 -0.000000
RightFoot -28.420821 -15.133781 19.713771
RightToeBase -3.569222 -0.000000 0.000000
1145
root -8.503843 29.799567 -6.328905 25.079512 10.210409 9.420114
Spine 6.153168 7.669504 -2.999450
Head -44.228915 -0.482733 -3.716895
LeftShoulder -8.898852 18.848700 9.423452
LeftArm 13.682920 18.262808 -78.641123
LeftForeArm 10.514271 -0.000000 22.869712
LeftHand -21.428506 -0.000000 3.013041
LeftHandThumb1 -26.253704 0.000000 33.147579
RightShoulder -11.459228 15.659809 -22.144359
RightArm -3.477767 -24.514976 85.926107
RightForeArm -2.101047 -0.000000 25.792887
RightHand -1.459403 -0.000000 4.552303
RightHandThumb1 -24.326973 -0.000000 -32.862282
LeftUpLeg -43.809921 16.818264 11.208966
LeftLeg 28.111086 -0.000000 -0.000000
LeftFoot 5.462532 4.282515 -32.955136
LeftToeBase -0.276129 -0.000000 0.000000
RightUpLeg -43.004424 -17.752467 -15.852663
RightLeg 57.384714 -0.000000 -0.000000
RightFoot -27.824557 -15.723021 19.561995
RightToeBase -3.494224 -0.000000 0.000000
